<svg width="24" height="24" viewBox="0 0 24 24" fill="none" xmlns="http://www.w3.org/2000/svg">
<path d="M18 21.9999H6C4.89543 21.9999 4 21.1045 4 19.9999V3.99989C4 2.89533 4.89543 1.99989 6 1.99989H13C13.009 1.99873 13.018 1.99873 13.027 1.99989H13.033C13.0424 2.00285 13.0522 2.00486 13.062 2.00589C13.1502 2.01155 13.2373 2.02869 13.321 2.05689H13.336H13.351H13.363C13.3815 2.06982 13.3988 2.0842 13.415 2.09989C13.5239 2.14832 13.6232 2.21608 13.708 2.29989L19.708 8.2999C19.7918 8.38468 19.8596 8.48395 19.908 8.5929C19.917 8.61489 19.924 8.6359 19.931 8.6589L19.941 8.68689C19.9689 8.77029 19.9854 8.85708 19.99 8.9449C19.9909 8.95486 19.9932 8.96463 19.997 8.9739V8.9799C19.9986 8.98645 19.9996 8.99315 20 8.9999V19.9999C20 20.5303 19.7893 21.039 19.4142 21.4141C19.0391 21.7892 18.5304 21.9999 18 21.9999ZM14.424 13.9999V18.9999H15.364V16.9599H16.824V16.1219H15.364V14.8409H17V13.9999H14.424ZM10.724 13.9999V18.9999H11.93C12.4359 19.0248 12.9258 18.8188 13.262 18.4399C13.6069 17.9998 13.7797 17.4491 13.748 16.8909V16.0809C13.7712 15.5285 13.5936 14.9864 13.248 14.5549C12.9226 14.1845 12.4476 13.9806 11.955 13.9999H10.724ZM7 13.9999V18.9999H7.94V17.2409H8.566C8.98402 17.264 9.39232 17.1093 9.69 16.8149C9.97408 16.4973 10.1214 16.0805 10.1 15.6549C10.1186 15.2191 9.97135 14.7925 9.688 14.4609C9.40772 14.1501 9.00309 13.981 8.585 13.9999H7ZM13 3.99989V8.9999H18L13 3.99989ZM11.946 18.1619H11.664V14.8409H12.006C12.2489 14.8266 12.4824 14.9366 12.626 15.1329C12.7726 15.4362 12.8354 15.7732 12.808 16.1089V16.9779C12.83 17.2976 12.7606 17.6171 12.608 17.8989C12.4441 18.0902 12.1965 18.1886 11.946 18.1619ZM8.585 16.3999H7.939V14.8409H8.594C8.75752 14.8427 8.90863 14.9284 8.994 15.0679C9.10222 15.2465 9.15447 15.4534 9.144 15.6619C9.15654 15.8564 9.1049 16.0496 8.997 16.2119C8.89754 16.3367 8.74447 16.4066 8.585 16.3999Z" fill="white"/>
</svg>
