<svg width="24" height="24" viewBox="0 0 24 24" fill="none" xmlns="http://www.w3.org/2000/svg">
<path d="M19.362 20.9928H4.638C3.73784 20.9917 3.00855 20.262 3.008 19.3618V4.63781C3.0091 3.73805 3.73823 3.00891 4.638 3.00781H19.361C20.2611 3.00891 20.9908 3.73772 20.993 4.63781V19.3618C20.9919 20.2621 20.2623 20.9917 19.362 20.9928ZM6.673 9.66981L6.285 11.0998H7.563L6.737 14.4658C6.6763 14.7321 6.64279 15.0038 6.637 15.2768C6.59052 15.7162 6.74776 16.1527 7.06378 16.4615C7.37979 16.7703 7.81979 16.9174 8.258 16.8608C9.18776 16.8205 10.0229 16.2803 10.441 15.4488L10.114 16.7488H11.925L12.958 12.6078C13.218 11.5478 13.73 11.0078 14.477 11.0078C14.7424 10.988 15.0031 11.0858 15.1901 11.2752C15.377 11.4647 15.4713 11.7267 15.448 11.9918C15.4506 12.1888 15.4219 12.3849 15.363 12.5728L14.835 14.4788C14.7589 14.7427 14.7205 15.0161 14.721 15.2908C14.6924 15.7296 14.8603 16.1583 15.1793 16.4609C15.4984 16.7635 15.9354 16.9085 16.372 16.8568C17.402 16.8568 18.12 16.1568 18.509 14.7758L17.802 14.5028C17.526 15.2918 17.232 15.6758 16.902 15.6758C16.661 15.6758 16.534 15.5088 16.534 15.1918C16.5408 15.0255 16.5659 14.8605 16.609 14.6998L17.129 12.8418C17.2469 12.4595 17.3076 12.0619 17.309 11.6618C17.3685 11.1302 17.2011 10.5982 16.848 10.1964C16.4949 9.79453 15.9888 9.56016 15.454 9.55081C14.4058 9.69396 13.5008 10.3567 13.048 11.3128L13.408 9.69581H10.62L10.229 11.0958H11.523L10.723 14.2838C10.4436 15.067 9.72659 15.6101 8.897 15.6668C8.86618 15.6673 8.83539 15.6649 8.805 15.6598C8.562 15.6028 8.421 15.5098 8.421 15.2078C8.42666 14.9582 8.46362 14.7102 8.531 14.4698L9.747 9.66981H6.673ZM9.018 6.50781C8.62858 6.50781 8.26874 6.71557 8.07403 7.05281C7.87932 7.39006 7.87932 7.80557 8.07403 8.14281C8.26874 8.48006 8.62858 8.68781 9.018 8.68781V8.66281C9.30954 8.66518 9.59023 8.55233 9.799 8.34881C10.0037 8.14671 10.118 7.87046 10.116 7.58281C10.1083 6.98333 9.61751 6.50281 9.018 6.50781Z" fill="#333333"/>
</svg>
