<svg width="43" height="40" viewBox="0 0 43 40" fill="none" xmlns="http://www.w3.org/2000/svg">
<path d="M20 40C31.0457 40 40 31.0457 40 20C40 8.95431 31.0457 0 20 0C8.95431 0 0 8.95431 0 20C0 31.0457 8.95431 40 20 40Z" fill="url(#paint0_linear)"/>
<path d="M42.3569 20C42.3569 30.7696 33.6265 39.5 22.8569 39.5C12.0874 39.5 3.35693 30.7696 3.35693 20C3.35693 9.23045 12.0874 0.5 22.8569 0.5C33.6265 0.5 42.3569 9.23045 42.3569 20Z" fill="#F2F2F2" stroke="white"/>
<path d="M14.3402 21.2846C14.7029 20.9966 14.8682 20.8632 14.8362 20.8846C15.8815 20.0206 16.7029 19.3112 17.3002 18.7566C17.9082 18.2019 18.4202 17.6206 18.8362 17.0126C19.2522 16.4046 19.4602 15.8126 19.4602 15.2366C19.4602 14.7992 19.3589 14.4579 19.1562 14.2126C18.9535 13.9672 18.6495 13.8446 18.2442 13.8446C17.8389 13.8446 17.5189 13.9992 17.2842 14.3086C17.0602 14.6072 16.9482 15.0339 16.9482 15.5886H14.3082C14.3295 14.6819 14.5215 13.9246 14.8842 13.3166C15.2575 12.7086 15.7429 12.2606 16.3402 11.9726C16.9482 11.6846 17.6202 11.5406 18.3562 11.5406C19.6255 11.5406 20.5802 11.8659 21.2202 12.5166C21.8709 13.1672 22.1962 14.0152 22.1962 15.0606C22.1962 16.2019 21.8069 17.2632 21.0282 18.2446C20.2495 19.2152 19.2575 20.1646 18.0522 21.0926H22.3722V23.3166H14.3402V21.2846ZM23.4808 21.2846C23.8435 20.9966 24.0088 20.8632 23.9768 20.8846C25.0222 20.0206 25.8435 19.3112 26.4408 18.7566C27.0488 18.2019 27.5608 17.6206 27.9768 17.0126C28.3928 16.4046 28.6008 15.8126 28.6008 15.2366C28.6008 14.7992 28.4995 14.4579 28.2968 14.2126C28.0942 13.9672 27.7902 13.8446 27.3848 13.8446C26.9795 13.8446 26.6595 13.9992 26.4248 14.3086C26.2008 14.6072 26.0888 15.0339 26.0888 15.5886H23.4488C23.4702 14.6819 23.6622 13.9246 24.0248 13.3166C24.3982 12.7086 24.8835 12.2606 25.4808 11.9726C26.0888 11.6846 26.7608 11.5406 27.4968 11.5406C28.7662 11.5406 29.7208 11.8659 30.3608 12.5166C31.0115 13.1672 31.3368 14.0152 31.3368 15.0606C31.3368 16.2019 30.9475 17.2632 30.1688 18.2446C29.3902 19.2152 28.3982 20.1646 27.1928 21.0926H31.5128V23.3166H23.4808V21.2846Z" fill="#323552"/>
<path d="M14.2791 29.1859H15.1751V29.7139H13.5951V26.9059H14.2791V29.1859ZM16.1853 26.9059V29.7139H15.5013V26.9059H16.1853ZM18.509 26.9059V27.4539H17.365V28.0459H18.221V28.5779H17.365V29.7139H16.681V26.9059H18.509ZM19.5525 27.4539V28.0219H20.4685V28.5499H19.5525V29.1659H20.5885V29.7139H18.8685V26.9059H20.5885V27.4539H19.5525ZM24.0202 27.8099C24.0202 27.9725 23.9829 28.1219 23.9082 28.2579C23.8335 28.3912 23.7189 28.4992 23.5642 28.5819C23.4095 28.6645 23.2175 28.7059 22.9882 28.7059H22.5642V29.7139H21.8802V26.9059H22.9882C23.2122 26.9059 23.4015 26.9445 23.5562 27.0219C23.7109 27.0992 23.8269 27.2059 23.9042 27.3419C23.9815 27.4779 24.0202 27.6339 24.0202 27.8099ZM22.9362 28.1619C23.0669 28.1619 23.1642 28.1312 23.2282 28.0699C23.2922 28.0085 23.3242 27.9219 23.3242 27.8099C23.3242 27.6979 23.2922 27.6112 23.2282 27.5499C23.1642 27.4885 23.0669 27.4579 22.9362 27.4579H22.5642V28.1619H22.9362ZM26.1243 29.2179H25.0763L24.9083 29.7139H24.1923L25.2083 26.9059H26.0003L27.0163 29.7139H26.2923L26.1243 29.2179ZM25.9483 28.6899L25.6003 27.6619L25.2563 28.6899H25.9483ZM29.3455 26.9059V27.4539H28.6015V29.7139H27.9175V27.4539H27.1735V26.9059H29.3455ZM32.1208 26.9059V29.7139H31.4368V28.5579H30.3728V29.7139H29.6888V26.9059H30.3728V28.0059H31.4368V26.9059H32.1208Z" fill="#323552"/>
<defs>
<linearGradient id="paint0_linear" x1="15.122" y1="4.12419e-08" x2="16.5854" y2="46.3415" gradientUnits="userSpaceOnUse">
<stop stop-color="#CFCFCF"/>
<stop offset="1" stop-color="#7A7A7A"/>
</linearGradient>
</defs>
</svg>
