<svg width="43" height="40" viewBox="0 0 43 40" fill="none" xmlns="http://www.w3.org/2000/svg">
<path d="M20 40C31.0457 40 40 31.0457 40 20C40 8.95431 31.0457 0 20 0C8.95431 0 0 8.95431 0 20C0 31.0457 8.95431 40 20 40Z" fill="url(#paint0_linear)"/>
<path d="M42.4268 20C42.4268 30.7696 33.6963 39.5 22.9268 39.5C12.1572 39.5 3.42676 30.7696 3.42676 20C3.42676 9.23045 12.1572 0.5 22.9268 0.5C33.6963 0.5 42.4268 9.23045 42.4268 20Z" fill="#F2F2F2" stroke="white"/>
<path d="M18.8932 27.3419C18.8932 27.3419 18.7245 27.455 18.5567 27.4173C18.3889 27.3796 18.1457 27.4254 18.1457 27.4254L16.6983 24.9335C16.6983 24.9335 15.9212 25.6603 15.2105 25.025C15.5847 25.1372 16.0325 24.3888 16.5753 24.7074C16.0701 24.2389 15.0983 25.0618 14.612 23.9213C15.285 24.3332 15.678 23.6781 16.2945 24.09C15.696 23.417 14.8175 24.1519 14.4621 23.2429C15.0041 23.4367 15.4528 22.8445 15.9391 23.2429C15.5282 22.4075 14.2755 23.5668 14.0323 22.1652C14.5743 22.4452 15.1728 22.0907 15.5093 22.3707C14.874 21.1557 14.2943 22.5564 13.7523 20.7815C14.1265 21.3047 14.6497 20.8003 15.1916 21.6232C14.7986 20.1273 13.7335 21.38 13.397 19.623C14.07 19.3987 14.3499 20.3894 14.8928 20.5949C14.5563 19.4346 13.8456 19.7711 14.2755 18.4062C15.2473 18.8926 14.8175 19.7146 15.1351 20.6684C15.3783 20.3319 15.0606 19.9021 15.2293 19.6033C15.398 19.3045 15.4914 19.1546 15.4348 19.0048C16.3133 20.0143 15.2473 20.8739 15.3415 21.2293C15.4348 21.5846 15.5847 21.7156 15.5847 21.7156C15.5847 21.7156 15.4914 21.1736 15.678 20.856C15.8647 20.5383 16.1644 20.4262 16.1455 20.1453C16.351 20.3885 16.2765 20.9493 16.0334 21.2293C15.7902 21.5092 15.7525 22.202 15.9023 22.4443C15.8449 21.686 16.5197 21.7336 16.4075 20.9673C16.7817 21.0417 16.9136 21.9023 16.5009 22.2199C16.089 22.5376 16.4075 23.4161 16.4075 23.4161C16.4075 23.4161 16.4264 22.8562 16.6507 22.5941C16.8751 22.3321 17.0061 22.0512 16.9495 21.7901C17.2483 22.0333 17.286 22.7251 17.0805 23.0616C16.8751 23.3981 16.5574 23.5848 16.8751 24.1277C16.8374 23.137 17.5104 23.3237 17.4924 22.6883C17.8855 22.9881 17.6611 23.6243 17.4368 23.8289C17.2125 24.0335 17.2501 24.5019 17.2501 24.5019C17.2501 24.5019 17.4933 24.1645 17.68 24.0344C17.8666 23.9042 17.9958 23.5283 17.9958 23.5283C17.9958 23.5283 18.2273 24.6939 17.4915 24.7433C17.4727 25.2861 18.519 26.8933 18.8932 27.3419Z" fill="#379543"/>
<path d="M31.771 22.2393L32.1568 22.4278L30.0427 24.9322L32.0133 21.1885L32.304 21.5977L32.8585 19.1157L31.2407 20.9588L31.6606 21.0521L30.1854 23.8231L30.6529 21.8615L31.0271 22.198V19.6559L29.8489 21.8059H30.2796L29.4496 25.2059L29.0126 26.027L28.51 26.2208L28.3064 26.578L28.1637 26.5968L26.518 28.3511L27.3471 28.3565L27.5122 29.1713L28.2139 28.334L27.9609 29.1524L28.7093 28.7944L29.2136 29.4521L29.7932 27.1334L29.5285 26.6327L29.5213 26.6094L29.6685 25.9902L32.4691 22.6413L32.6566 23.1061L33.7711 20.8206L31.771 22.2393ZM10.5005 18.5898H8.78027C8.78027 18.5898 9.15446 18.6643 9.32227 19.0574C9.49007 19.4504 10.5435 22.5408 10.6306 22.9123C10.7616 23.4687 10.3506 23.5808 10.3506 23.5808H12.052C12.052 23.5808 11.5656 23.4956 11.7155 22.9123C11.8653 22.3291 12.856 19.4315 12.9682 19.0762C13.0803 18.7209 13.398 18.5898 13.398 18.5898H11.6966C11.6966 18.5898 12.2763 18.7191 12.1076 19.1875C11.9389 19.655 11.1914 22.1604 11.1914 22.1604C11.1914 22.1604 10.3497 19.6541 10.2008 19.1875C10.0518 18.7209 10.5005 18.5898 10.5005 18.5898ZM37.5983 18.5898H36.028C36.028 18.5898 36.333 18.7998 36.333 19.2072C36.333 19.6209 36.3223 22.7364 36.3223 23.0353C36.3223 23.4283 35.9633 23.5817 35.9633 23.5817H37.6638C37.6638 23.5817 37.2071 23.343 37.2071 23.0065V19.1157C37.2062 18.7585 37.5983 18.5898 37.5983 18.5898Z" fill="#0081C7"/>
<path d="M36.8386 12.6847C36.3989 12.7404 34.9793 13.5076 32.3797 14.0119C32.2298 13.8997 31.9499 13.9563 31.5012 14.1618C31.0525 14.3673 28.9025 14.9658 28.3049 15.1901C27.7073 15.4145 27.3914 15.8775 27.4632 16.2741C27.5942 16.9848 28.1173 17.097 27.9307 17.3025C27.744 17.5079 27.1832 17.0225 26.809 17.2468C26.6161 17.3626 25.5384 17.1014 25.5124 16.9848C25.419 16.5738 25.0081 16.2185 25.0081 16.2185C25.0081 16.2185 25.3257 16.1628 25.4011 16.0318C24.877 15.733 24.5414 15.1533 24.5414 15.1533C24.5414 15.1533 24.8779 15.3032 24.9901 15.1533C24.5603 14.7603 24.5971 13.863 24.3916 13.4708C24.1861 13.0787 23.9429 12.779 23.4422 12.7601C22.9415 12.7413 22.7468 12.779 22.4471 13.1711C22.2227 13.1523 22.1779 13.4143 22.1779 13.4143C22.1779 13.4143 21.9795 13.4331 21.6619 13.4888C21.3442 13.5444 21.1387 13.9374 21.2689 14.2928C21.3433 14.0873 21.7552 14.0496 22.0917 14.0128C22.4282 13.976 22.6714 14.387 22.5404 14.5171C22.4094 14.6472 22.3717 14.8159 22.2972 15.1345C22.2227 15.453 21.6709 15.602 21.6709 15.602C21.6709 15.602 21.8297 15.7707 22.0729 15.7519C21.9419 15.9573 21.5497 16.2382 21.2689 16.275C21.4376 16.4805 21.6987 16.4437 21.6987 16.4437C21.6987 16.4437 21.5488 16.8547 21.2689 17.0979C21.2689 17.0979 20.2288 17.3635 20.035 17.2477C19.6608 17.0234 19.1 17.5097 18.9133 17.3033C18.7267 17.097 19.2498 16.9857 19.3809 16.275C19.4535 15.8784 19.1377 15.4153 18.5391 15.191C17.9406 14.9667 15.7915 14.3682 15.3428 14.1627C14.8942 13.9572 14.6124 13.8997 14.4625 14.0119C11.8647 13.5076 10.4434 12.7413 10.0046 12.6847C9.56577 12.6282 9.43386 13.3578 10.088 13.6566C9.90137 13.8621 10.0135 14.4229 10.5744 14.4606C10.35 14.7038 10.63 15.2081 11.6404 15.4324C11.5094 15.6944 11.7903 16.3109 13.0053 16.5164C12.8743 16.8906 13.2852 17.2827 14.2014 17.3949C14.0327 17.6569 14.3513 18.0679 15.2298 18.1612C14.9498 18.591 15.6973 18.8898 16.6503 18.8719C16.3326 19.0585 16.4636 19.5826 16.9123 19.6759C16.7624 19.9747 17.1743 20.4799 17.6598 20.4046C17.6974 20.6477 18.0339 20.8344 18.3516 20.61C18.3516 20.9277 19.0435 21.283 19.2489 20.8721C19.4069 21.0291 19.8546 21.1287 20.1597 20.8218C20.1732 20.8963 20.1911 20.969 20.21 21.0417C20.0844 21.4132 19.817 21.8116 19.3791 22.1436C18.9115 22.4989 18.6693 23.0777 18.6872 23.4519C18.7052 23.8261 18.5562 24.1061 18.3319 24.1994L18.5374 24.2748C18.5374 24.2748 18.2009 24.7225 18.0142 24.7602C17.8276 24.7979 16.9302 24.6858 16.7615 24.8536C16.5928 25.0214 16.2572 25.6944 16.4816 25.8254C16.7059 25.9564 16.7992 26.1807 16.9302 26.3117C17.0612 26.4427 17.771 26.2364 17.9209 26.1062C18.0707 25.9761 18.0519 25.3211 18.1829 25.2466C18.3139 25.1721 19.5478 24.6113 19.5478 24.6113L19.5666 24.8912C19.5666 24.8912 19.7721 24.6481 19.9408 24.5736C20.1095 24.4991 20.1463 24.1438 20.2396 23.9751C20.3257 23.8198 20.9377 23.2742 21.7633 23.1002C21.8674 23.1603 21.6978 23.2832 21.6978 23.2832C21.3694 23.2105 21.2303 23.6386 21.2491 23.8064C20.8938 23.844 20.0709 24.9837 19.9408 25.3767C19.8107 25.7697 19.9219 25.9384 20.0906 25.9187C20.0718 26.1987 20.2961 26.4329 20.5393 26.353C20.5582 26.6473 20.726 26.8349 20.9323 26.816C20.97 27.1337 21.1567 27.3203 21.381 27.2647C21.4187 27.5824 21.661 27.7511 21.9795 27.6577C21.9984 28.0876 22.316 28.4985 22.7647 28.031C22.8392 28.8916 23.9052 29.1733 24.0174 28.0876C24.4095 28.4429 24.9147 28.2563 24.9147 27.6577C25.1391 27.8264 25.4567 27.6021 25.4756 27.2647C25.6999 27.358 25.8874 27.1337 25.8874 26.7604C26.1306 26.8914 26.2993 26.6213 26.2805 26.3351C26.5416 26.4239 26.7848 26.1628 26.7292 25.8631C26.9723 25.9564 27.1392 25.5723 26.8413 25.0967C26.3738 24.3492 25.6443 23.8064 25.6443 23.8064C25.6443 23.8064 25.7573 23.3613 25.1588 23.2751C25.0781 23.2635 24.9892 23.154 25.078 23.1019C25.8982 23.2787 26.5039 23.8198 26.5901 23.9742C26.6834 24.1429 26.7211 24.4982 26.8889 24.5727C27.0567 24.6472 27.2631 24.8903 27.2631 24.8903L27.2819 24.6104C27.2819 24.6104 28.5158 25.1712 28.6468 25.2457C28.776 25.3202 28.7589 25.9743 28.9079 26.1053C29.0586 26.2364 29.7684 26.4418 29.8986 26.3108C30.0287 26.1798 30.1229 25.9555 30.3472 25.8245C30.5716 25.6935 30.2351 25.0205 30.0672 24.8527C29.8994 24.6849 29.0012 24.797 28.8146 24.7593C28.627 24.7216 28.2905 24.2739 28.2905 24.2739L28.496 24.1985C28.2717 24.1052 28.1218 23.8252 28.1407 23.451C28.1577 23.0768 27.9163 22.498 27.4488 22.1427C27.0208 21.817 26.7561 21.4293 26.6278 21.0632C26.6484 20.9824 26.6699 20.9035 26.6852 20.8209C26.9903 21.1269 27.4389 21.0273 27.596 20.8703C27.8015 21.2812 28.4933 20.9259 28.4933 20.6082C28.811 20.8326 29.1484 20.6459 29.1852 20.4028C29.6706 20.4772 30.0825 19.9729 29.9326 19.6741C30.3813 19.5808 30.5123 19.0567 30.1947 18.8701C31.1476 18.8889 31.896 18.5901 31.6152 18.1594C32.4937 18.0661 32.8113 17.6542 32.6435 17.3931C33.5597 17.2809 33.9716 16.8888 33.8406 16.5146C35.0556 16.3091 35.3355 15.6917 35.2054 15.4306C36.2149 15.2063 36.4958 14.702 36.2714 14.4588C36.8323 14.4211 36.9453 13.8603 36.7578 13.6548C37.4084 13.3578 37.2765 12.6291 36.8386 12.6847Z" fill="#F4C63D"/>
<path d="M19.6162 18.9852C19.6218 19.8065 19.8061 20.6167 20.1564 21.3595C20.3422 21.7553 20.5638 22.1178 20.8088 22.4453L21.3517 23.0887C21.5491 23.2969 21.7519 23.4853 21.9538 23.6585L22.4967 24.0902C22.7935 24.311 23.102 24.5156 23.4209 24.703C23.7209 24.5249 24.0123 24.3327 24.294 24.1269L24.8378 23.7016C25.0568 23.5159 25.2784 23.3104 25.4929 23.0842L26.0358 22.4408C26.2889 22.1029 26.5069 21.74 26.6863 21.3578C27.0085 20.6731 27.2185 19.8861 27.2265 18.9834H19.6162V18.9852Z" fill="url(#paint1_radial)"/>
<path d="M20.1562 18.9832V21.3575C20.342 21.7532 20.5636 22.1158 20.8086 22.4433V18.9823H21.3515V23.0858C21.5489 23.294 21.7517 23.4824 21.9536 23.6556V18.9814H22.4965V24.0872C22.728 24.2586 22.9497 24.4085 23.1489 24.5332V18.9805H23.6918V24.5332C23.8757 24.4165 24.0794 24.2801 24.293 24.124V18.9805H24.8368V23.6987C25.0557 23.5129 25.2774 23.3074 25.4918 23.0813V18.9805H26.0347V22.4379C26.2878 22.0999 26.5058 21.737 26.6853 21.3548V18.9805H20.1562V18.9832Z" fill="#A70033"/>
<path d="M23.4216 16.3115C23.4216 16.3115 22.4857 16.7997 21.4636 16.7997C20.4415 16.7997 19.6133 16.3304 19.6133 16.3304V18.9291C19.6133 19.0188 19.6223 19.1031 19.6258 19.1902H27.2173C27.2218 19.1031 27.2308 19.0188 27.2308 18.9291V16.3304C27.2308 16.3304 26.4016 16.7997 25.3805 16.7997C24.3575 16.7997 23.4216 16.3115 23.4216 16.3115Z" fill="#172668"/>
<defs>
<linearGradient id="paint0_linear" x1="15.122" y1="4.12419e-08" x2="16.5854" y2="46.3415" gradientUnits="userSpaceOnUse">
<stop stop-color="#CFCFCF"/>
<stop offset="1" stop-color="#7A7A7A"/>
</linearGradient>
<radialGradient id="paint1_radial" cx="0" cy="0" r="1" gradientUnits="userSpaceOnUse" gradientTransform="translate(23.4214 21.8432) rotate(90) scale(2.85982 3.80516)">
<stop stop-color="#EBEBEB" stop-opacity="0.62"/>
<stop offset="1" stop-color="white" stop-opacity="0.83"/>
</radialGradient>
</defs>
</svg>
