<?xml version="1.0" standalone="no"?><svg xmlns="http://www.w3.org/2000/svg" viewBox="0 0 1440 320"><path fill="#323552" fill-opacity="2" d="M0,96L30,96C60,96,120,96,180,112C240,128,300,160,360,192C420,224,480,256,540,234.7C600,213,660,139,720,128C780,117,840,171,900,170.7C960,171,1020,117,1080,122.7C1140,128,1200,192,1260,208C1320,224,1380,192,1410,176L1440,160L1440,0L1410,0C1380,0,1320,0,1260,0C1200,0,1140,0,1080,0C1020,0,960,0,900,0C840,0,780,0,720,0C660,0,600,0,540,0C480,0,420,0,360,0C300,0,240,0,180,0C120,0,60,0,30,0L0,0Z"></path></svg>